<?xml version="1.0" encoding="UTF-8"?>
<svg id="Camada_1" data-name="Camada 1" xmlns="http://www.w3.org/2000/svg" viewBox="0 0 934.78 251.45">
  <path d="M198.07,155.35l46.26-124.01h27.16l46.65,124.01h-18.9l-13.78-37.4h-55.12l-13.98,37.4h-18.31ZM280.15,103.78l-22.24-59.84-22.24,59.84h44.49Z"/>
  <path d="M338.15,61.65c4.07,0,7.35,1.25,9.84,3.74,2.62,2.49,3.87,5.84,3.74,10.04v.98c2.76-4.2,6.23-7.87,10.43-11.02,4.33-3.15,8.66-4.72,12.99-4.72h20.87v15.16h-21.26c-7.35,0-12.93,2.89-16.73,8.66-3.67,5.64-5.51,13.19-5.51,22.64v48.42h-16.93v-78.94h-8.07v-14.96h10.63Z"/>
  <path d="M416.96,24.25h16.93v105.9l53.15-68.5h18.7l-34.65,45.08,38.39,48.82h-20.87l-27.95-34.84-26.77,34.84h-16.93V24.25Z"/>
  <path d="M530.04,155.55V17.17h16.93v65.75c4.2-7.74,9.25-13.52,15.16-17.32,5.91-3.94,12.34-5.91,19.29-5.91,6.17,0,11.55,1.05,16.14,3.15,4.72,1.97,8.66,4.79,11.81,8.46,3.15,3.67,5.51,8.07,7.09,13.19,1.71,5.12,2.56,10.83,2.56,17.13v53.94h-16.93v-52.16c0-8.4-2.1-15.22-6.3-20.47-4.07-5.38-10.56-8.07-19.49-8.07-4.72,0-8.92.92-12.6,2.76-3.67,1.84-6.76,4.33-9.25,7.48-2.49,3.02-4.4,6.63-5.71,10.83-1.18,4.2-1.77,8.66-1.77,13.39v46.26h-16.93Z"/>
  <path d="M725.89,155.74c-5.25,0-8.86-1.38-10.83-4.13-1.84-2.76-2.75-6.04-2.75-9.84v-9.25c-1.18,4.07-2.95,7.68-5.32,10.83-2.36,3.02-5.18,5.58-8.46,7.68-3.28,2.1-6.82,3.67-10.63,4.72-3.8,1.18-7.74,1.77-11.81,1.77-4.33,0-8.66-.52-12.99-1.57-4.33-1.05-8.2-2.69-11.61-4.92-3.41-2.23-6.23-5.05-8.46-8.46-2.1-3.54-3.15-7.81-3.15-12.8s1.12-9.38,3.35-12.8c2.23-3.41,5.05-6.23,8.46-8.46,3.54-2.36,7.41-4.13,11.61-5.31,4.33-1.31,8.6-2.23,12.8-2.76l36.22-5.51v-6.1c0-3.28-.92-5.91-2.76-7.87-1.71-1.97-3.94-3.48-6.69-4.53-2.63-1.18-5.45-1.97-8.46-2.36-3.02-.39-5.78-.59-8.27-.59-6.96,0-12.73,1.31-17.32,3.94-4.46,2.62-7.02,7.74-7.68,15.35l-14.96-1.57c0-5.51,1.18-10.24,3.55-14.17,2.49-4.07,5.64-7.35,9.45-9.84,3.81-2.62,8.14-4.53,12.99-5.71,4.86-1.18,9.64-1.77,14.37-1.77s9.32.46,14.17,1.38c4.86.92,9.32,2.49,13.38,4.72,4.07,2.23,7.41,5.25,10.04,9.05,2.63,3.67,3.94,8.27,3.94,13.78v53.35h8.66v13.78h-10.83ZM675.89,113.03c-2.1.39-4.26.98-6.49,1.77-2.23.79-4.26,1.9-6.1,3.35-1.84,1.31-3.34,2.95-4.53,4.92-1.18,1.84-1.77,4-1.77,6.5s.59,4.59,1.77,6.3c1.31,1.71,2.89,3.08,4.72,4.13,1.97.92,4.07,1.64,6.3,2.17,2.23.39,4.4.59,6.5.59,4.2,0,8.46-.46,12.79-1.38,4.33-1.05,8.2-2.69,11.61-4.92,3.41-2.23,6.17-5.05,8.27-8.46,2.23-3.54,3.35-7.74,3.35-12.6v-8.46l-36.42,6.1Z"/>
  <path d="M229.53,223.34l4.22,4.19c-4.03,4.5-9.01,6.76-14.95,6.76s-10.79-1.84-14.72-5.51c-3.87-3.73-5.81-8.41-5.81-14.05s1.99-10.41,5.97-14.13c3.98-3.78,8.99-5.67,15.03-5.67s10.95,2.17,15.03,6.52l-4.14,4.43c-1.86-1.76-3.61-2.98-5.25-3.65-1.64-.67-3.58-1.01-5.81-1.01-3.98,0-7.32,1.24-10.02,3.73-2.65,2.48-3.98,5.64-3.98,9.47s1.33,6.99,3.98,9.63c2.65,2.64,5.81,3.96,9.47,3.96,2.23,0,4.14-.36,5.73-1.09,1.64-.72,3.39-1.92,5.25-3.57Z"/>
  <path d="M247.2,233.82v-37.97h6.6v31.91h17.74v6.06h-24.34Z"/>
  <path d="M300.09,228.15c3.02,0,5.41-1.01,7.16-3.03,1.8-2.02,2.7-4.76,2.7-8.23v-21.04h6.6v21.28c0,5.38-1.51,9.58-4.53,12.58-3.02,3-7,4.5-11.93,4.5s-8.91-1.5-11.93-4.5c-3.02-3-4.53-7.2-4.53-12.58v-21.28h6.52v21.04c0,3.52.9,6.26,2.7,8.23,1.75,2.02,4.16,3.03,7.24,3.03Z"/>
  <path d="M332.3,233.82v-37.97h15.11c5.46,0,9.17,1.14,11.14,3.42,1.75,1.92,2.63,4.12,2.63,6.6,0,3-.95,5.23-2.86,6.68-.64.47-1.59.98-2.86,1.55,2.44.52,4.35,1.58,5.73,3.18,1.43,1.6,2.15,3.6,2.15,5.98,0,3-1.11,5.51-3.34,7.53-2.17,2.02-5.73,3.03-10.66,3.03h-17.02ZM338.9,211.61h8.27c4.77,0,7.16-1.58,7.16-4.74,0-1.81-.58-3.11-1.75-3.88-1.11-.83-2.89-1.24-5.33-1.24h-8.35v9.86ZM338.9,227.92h10.26c2.55,0,4.43-.39,5.65-1.16,1.22-.83,1.83-2.23,1.83-4.19,0-3.36-2.76-5.05-8.27-5.05h-9.47v10.41Z"/>
  <path d="M404.32,195.85v5.98h-20.76v10.09h18.61v5.67h-18.61v10.17h21.4v6.06h-28v-37.97h27.36Z"/>
</svg>