<?xml version="1.0" encoding="UTF-8"?>
<svg id="Camada_1" data-name="Camada 1" xmlns="http://www.w3.org/2000/svg" viewBox="0 0 982.61 803.19">
  <g>
    <path d="M322.47,706.26l56.69-150.53h33.29l57.17,150.53h-23.16l-16.89-45.4h-67.55l-17.13,45.4h-22.44ZM423.07,643.66l-27.26-72.63-27.26,72.63h54.52Z"/>
    <path d="M494.14,592.53c4.99,0,9,1.51,12.06,4.54,3.22,3.02,4.74,7.09,4.58,12.18v1.2c3.38-5.1,7.64-9.56,12.79-13.38,5.31-3.82,10.61-5.73,15.92-5.73h25.57v18.4h-26.06c-9.01,0-15.84,3.5-20.51,10.51-4.5,6.85-6.75,16.01-6.75,27.48v58.78h-20.75v-95.82h-9.89v-18.16h13.03Z"/>
    <path d="M590.73,547.13h20.75v128.55l65.14-83.15h22.92l-42.46,54.72,47.04,59.26h-25.57l-34.26-42.29-32.81,42.29h-20.75v-159.37Z"/>
    <path d="M729.31,706.5v-167.97h20.75v79.8c5.15-9.4,11.34-16.41,18.58-21.03,7.24-4.78,15.12-7.17,23.64-7.17,7.56,0,14.16,1.27,19.78,3.82,5.79,2.39,10.61,5.81,14.47,10.27,3.86,4.46,6.76,9.8,8.69,16.01,2.09,6.21,3.14,13.14,3.14,20.79v65.47h-20.75v-63.32c0-10.19-2.57-18.48-7.72-24.85-4.99-6.53-12.95-9.8-23.88-9.8-5.79,0-10.94,1.11-15.44,3.34-4.5,2.23-8.28,5.26-11.34,9.08-3.06,3.66-5.39,8.04-7,13.14-1.45,5.1-2.17,10.51-2.17,16.24v56.15h-20.75Z"/>
    <path d="M969.34,706.74c-6.43,0-10.85-1.67-13.27-5.02-2.25-3.35-3.38-7.33-3.38-11.95v-11.23c-1.45,4.94-3.62,9.32-6.52,13.14-2.89,3.66-6.35,6.77-10.37,9.32-4.02,2.55-8.36,4.46-13.03,5.73-4.66,1.43-9.49,2.15-14.47,2.15-5.31,0-10.61-.64-15.92-1.91-5.31-1.27-10.05-3.27-14.23-5.97-4.18-2.71-7.64-6.13-10.37-10.27-2.57-4.3-3.86-9.48-3.86-15.53s1.37-11.39,4.1-15.53c2.73-4.14,6.19-7.57,10.37-10.27,4.34-2.87,9.09-5.02,14.23-6.45,5.31-1.59,10.53-2.71,15.68-3.35l44.39-6.69v-7.41c0-3.98-1.13-7.17-3.38-9.56-2.09-2.39-4.82-4.22-8.2-5.49-3.22-1.43-6.67-2.39-10.37-2.87-3.7-.48-7.08-.71-10.13-.71-8.52,0-15.6,1.59-21.23,4.78-5.47,3.19-8.61,9.4-9.41,18.64l-18.33-1.91c0-6.69,1.45-12.43,4.34-17.2,3.06-4.94,6.92-8.92,11.58-11.95,4.66-3.19,9.97-5.5,15.92-6.93,5.95-1.43,11.82-2.15,17.61-2.15s11.42.56,17.37,1.67c5.95,1.11,11.42,3.03,16.4,5.73,4.99,2.71,9.09,6.37,12.31,10.99,3.22,4.46,4.82,10.03,4.82,16.73v64.75h10.61v16.73h-13.27ZM908.06,654.89c-2.57.48-5.23,1.19-7.96,2.15-2.73.96-5.23,2.31-7.48,4.06-2.25,1.59-4.1,3.58-5.55,5.97-1.45,2.23-2.17,4.86-2.17,7.89s.72,5.58,2.17,7.64c1.61,2.07,3.54,3.74,5.79,5.02,2.42,1.11,4.99,1.99,7.72,2.63,2.73.48,5.39.71,7.96.71,5.15,0,10.37-.56,15.68-1.67,5.31-1.27,10.05-3.27,14.23-5.97,4.18-2.71,7.56-6.13,10.13-10.27,2.73-4.3,4.1-9.4,4.1-15.29v-10.27l-44.63,7.41Z"/>
    <path d="M360.65,789.66l5.15,5.18c-4.92,5.57-11.01,8.35-18.27,8.35s-13.18-2.27-17.98-6.82c-4.73-4.61-7.09-10.4-7.09-17.38s2.43-12.86,7.29-17.47c4.86-4.67,10.98-7.01,18.37-7.01s13.38,2.69,18.37,8.06l-5.05,5.47c-2.27-2.18-4.41-3.68-6.41-4.51-2.01-.83-4.37-1.25-7.09-1.25-4.86,0-8.94,1.54-12.24,4.61-3.24,3.07-4.86,6.98-4.86,11.71s1.62,8.64,4.86,11.9c3.24,3.26,7.09,4.9,11.56,4.9,2.72,0,5.05-.45,7-1.34,2.01-.9,4.15-2.37,6.41-4.42Z"/>
    <path d="M382.25,802.62v-46.95h8.07v39.46h21.67v7.49h-29.73Z"/>
    <path d="M446.85,795.61c3.69,0,6.61-1.25,8.75-3.74,2.2-2.49,3.3-5.89,3.3-10.18v-26.02h8.06v26.31c0,6.66-1.85,11.84-5.54,15.55-3.69,3.71-8.55,5.57-14.58,5.57s-10.88-1.86-14.58-5.57c-3.69-3.71-5.54-8.9-5.54-15.55v-26.31h7.97v26.02c0,4.35,1.1,7.75,3.3,10.18,2.14,2.5,5.08,3.74,8.84,3.74Z"/>
    <path d="M486.2,802.62v-46.95h18.46c6.67,0,11.21,1.41,13.6,4.22,2.14,2.37,3.21,5.09,3.21,8.16,0,3.71-1.17,6.46-3.5,8.26-.78.57-1.94,1.21-3.5,1.92,2.98.64,5.31,1.95,7,3.94,1.75,1.98,2.63,4.45,2.63,7.39,0,3.71-1.36,6.81-4.08,9.31-2.66,2.49-7,3.74-13.02,3.74h-20.8ZM494.27,775.16h10.11c5.83,0,8.75-1.95,8.75-5.86,0-2.24-.71-3.84-2.14-4.8-1.36-1.03-3.53-1.54-6.51-1.54h-10.2v12.19ZM494.27,795.32h12.54c3.11,0,5.41-.48,6.9-1.44,1.49-1.03,2.23-2.75,2.23-5.18,0-4.16-3.37-6.24-10.11-6.24h-11.56v12.87Z"/>
    <path d="M574.18,755.67v7.39h-25.36v12.48h22.74v7.01h-22.74v12.58h26.14v7.49h-34.21v-46.95h33.43Z"/>
  </g>
  <path d="M327.12,465.45L0,288.3h327.12v-138.34L982.61,0v465.45h-328.25l328.25-177.15H327.12v177.15Z"/>
</svg>