<?xml version="1.0" encoding="UTF-8"?>
<svg id="Camada_1" data-name="Camada 1" xmlns="http://www.w3.org/2000/svg" viewBox="0 0 934.78 251.45">
  <path d="M173.59,251.07L0,155.51h173.59v-74.62L521.44,0v251.07h-174.19l174.19-95.55H173.59v95.55Z"/>
  <path d="M582.47,199.82l30.26-81.11h17.77l30.51,81.11h-12.36l-9.01-24.46h-36.05l-9.14,24.46h-11.97ZM636.16,166.09l-14.55-39.14-14.55,39.14h29.1Z"/>
  <path d="M674.09,138.54c2.66,0,4.81.82,6.44,2.45,1.72,1.63,2.53,3.82,2.45,6.57v.64c1.8-2.75,4.08-5.15,6.82-7.21,2.83-2.06,5.66-3.09,8.5-3.09h13.65v9.91h-13.91c-4.81,0-8.45,1.89-10.94,5.67-2.4,3.69-3.61,8.63-3.61,14.81v31.67h-11.07v-51.63h-5.28v-9.79h6.95Z"/>
  <path d="M725.64,114.07h11.07v69.27l34.76-44.81h12.23l-22.66,29.48,25.11,31.93h-13.65l-18.28-22.79-17.51,22.79h-11.07v-85.88Z"/>
  <path d="M799.6,199.95v-90.51h11.07v43c2.75-5.06,6.05-8.84,9.91-11.33,3.86-2.57,8.07-3.86,12.62-3.86,4.03,0,7.55.69,10.56,2.06,3.09,1.29,5.67,3.13,7.73,5.54,2.06,2.4,3.6,5.28,4.63,8.63,1.12,3.35,1.67,7.08,1.67,11.2v35.28h-11.07v-34.12c0-5.49-1.37-9.96-4.12-13.39-2.66-3.52-6.91-5.28-12.75-5.28-3.09,0-5.84.6-8.24,1.8-2.4,1.2-4.42,2.83-6.05,4.89-1.63,1.97-2.88,4.33-3.73,7.08-.77,2.75-1.16,5.66-1.16,8.75v30.26h-11.07Z"/>
  <path d="M927.7,200.08c-3.43,0-5.79-.9-7.08-2.7-1.2-1.8-1.8-3.95-1.8-6.44v-6.05c-.77,2.66-1.93,5.02-3.47,7.08-1.55,1.97-3.39,3.65-5.54,5.02-2.15,1.37-4.46,2.4-6.95,3.09-2.49.77-5.06,1.16-7.72,1.16-2.83,0-5.67-.34-8.5-1.03-2.83-.69-5.37-1.76-7.6-3.22-2.23-1.46-4.08-3.3-5.54-5.54-1.37-2.32-2.06-5.11-2.06-8.37s.73-6.14,2.19-8.37c1.46-2.23,3.3-4.08,5.54-5.54,2.32-1.55,4.85-2.7,7.6-3.48,2.83-.86,5.62-1.46,8.37-1.8l23.69-3.6v-3.99c0-2.15-.6-3.86-1.8-5.15-1.12-1.29-2.58-2.27-4.38-2.96-1.72-.77-3.56-1.29-5.54-1.55-1.97-.26-3.78-.39-5.41-.39-4.55,0-8.33.86-11.33,2.58-2.92,1.72-4.59,5.06-5.02,10.04l-9.79-1.03c0-3.61.77-6.7,2.32-9.27,1.63-2.66,3.69-4.81,6.18-6.44,2.49-1.72,5.32-2.96,8.5-3.73,3.18-.77,6.31-1.16,9.4-1.16s6.09.3,9.27.9c3.18.6,6.09,1.63,8.75,3.09,2.66,1.46,4.85,3.43,6.57,5.92,1.72,2.4,2.57,5.41,2.57,9.01v34.89h5.67v9.01h-7.08ZM895,172.14c-1.37.26-2.79.64-4.25,1.16-1.46.51-2.79,1.24-3.99,2.19-1.2.86-2.19,1.93-2.96,3.22-.77,1.2-1.16,2.62-1.16,4.25s.39,3,1.16,4.12c.86,1.12,1.89,2.02,3.09,2.7,1.29.6,2.66,1.07,4.12,1.42,1.46.26,2.88.39,4.25.39,2.75,0,5.54-.3,8.37-.9,2.83-.69,5.37-1.76,7.6-3.22,2.23-1.46,4.03-3.3,5.41-5.54,1.46-2.32,2.19-5.06,2.19-8.24v-5.54l-23.82,3.99Z"/>
  <path d="M603.05,244.29l2.76,2.74c-2.64,2.95-5.9,4.42-9.78,4.42s-7.06-1.2-9.63-3.61c-2.53-2.44-3.8-5.5-3.8-9.19s1.3-6.8,3.9-9.24c2.6-2.47,5.88-3.71,9.83-3.71s7.16,1.42,9.83,4.27l-2.71,2.9c-1.21-1.15-2.36-1.95-3.43-2.39-1.08-.44-2.34-.66-3.8-.66-2.6,0-4.79.81-6.56,2.44-1.73,1.63-2.6,3.69-2.6,6.2s.87,4.57,2.6,6.3c1.74,1.73,3.8,2.59,6.19,2.59,1.46,0,2.71-.24,3.75-.71,1.08-.47,2.22-1.25,3.43-2.34Z"/>
  <path d="M614.61,251.15v-24.84h4.32v20.87h11.6v3.96h-15.92Z"/>
  <path d="M649.2,247.44c1.98,0,3.54-.66,4.68-1.98,1.18-1.32,1.77-3.11,1.77-5.38v-13.76h4.32v13.92c0,3.52-.99,6.26-2.97,8.23-1.98,1.96-4.58,2.95-7.8,2.95s-5.83-.98-7.81-2.95c-1.98-1.96-2.97-4.71-2.97-8.23v-13.92h4.27v13.76c0,2.3.59,4.1,1.77,5.38,1.14,1.32,2.72,1.98,4.73,1.98Z"/>
  <path d="M670.27,251.15v-24.84h9.88c3.57,0,6,.75,7.28,2.23,1.14,1.25,1.72,2.69,1.72,4.32,0,1.96-.62,3.42-1.87,4.37-.42.3-1.04.64-1.87,1.02,1.6.34,2.84,1.03,3.75,2.08.94,1.05,1.41,2.35,1.41,3.91,0,1.96-.73,3.61-2.19,4.93-1.42,1.32-3.74,1.98-6.97,1.98h-11.13ZM674.59,236.62h5.41c3.12,0,4.68-1.03,4.68-3.1,0-1.19-.38-2.03-1.14-2.54-.73-.54-1.89-.81-3.49-.81h-5.46v6.45ZM674.59,247.29h6.71c1.66,0,2.9-.25,3.69-.76.8-.54,1.2-1.46,1.2-2.74,0-2.2-1.8-3.3-5.41-3.3h-6.19v6.81Z"/>
  <path d="M717.37,226.31v3.91h-13.58v6.6h12.17v3.71h-12.17v6.65h14v3.96h-18.31v-24.84h17.9Z"/>
</svg>